<?xml version="1.0" standalone="no"?>
<!DOCTYPE svg PUBLIC "-//W3C//DTD SVG 20010904//EN"
 "http://www.w3.org/TR/2001/REC-SVG-20010904/DTD/svg10.dtd">
<svg version="1.0" xmlns="http://www.w3.org/2000/svg"
 width="1024.000000pt" height="1024.000000pt" viewBox="0 0 1024.000000 1024.000000"
 preserveAspectRatio="xMidYMid meet">
<metadata>
Created by potrace 1.11, written by Peter Selinger 2001-2013
</metadata>
<g transform="translate(0.000000,1024.000000) scale(0.100000,-0.100000)"
fill="#000000" stroke="none">
<path d="M0 5120 l0 -5120 5120 0 5120 0 0 5120 0 5120 -5120 0 -5120 0 0
-5120z m10140 0 l0 -5020 -5020 0 -5020 0 0 5020 0 5020 5020 0 5020 0 0
-5020z"/>
<path d="M4065 8316 c-5 -2 -22 -7 -37 -10 -41 -9 -93 -60 -111 -108 -9 -24
-31 -106 -50 -183 -73 -294 -225 -553 -416 -708 -41 -34 -98 -83 -125 -109
-45 -44 -48 -51 -43 -84 8 -46 41 -82 82 -90 44 -8 128 28 284 121 214 128
388 288 524 483 l51 72 294 0 293 0 26 -26 c24 -24 25 -30 19 -92 -18 -172
-77 -374 -161 -547 -215 -444 -558 -700 -1085 -809 -199 -41 -230 -59 -230
-131 0 -30 43 -81 76 -89 14 -4 82 0 152 9 610 77 1038 274 1316 605 218 260
382 618 441 966 14 80 14 105 4 147 -15 62 -75 127 -135 145 -30 9 -160 12
-472 12 l-430 0 34 79 c46 106 52 155 26 213 -23 53 -67 89 -137 113 -48 16
-169 29 -190 21z"/>
<path d="M7735 8165 c-57 -20 -100 -71 -114 -134 -7 -34 -11 -225 -11 -559 0
-295 -4 -543 -11 -592 -34 -278 -154 -502 -360 -676 -108 -91 -125 -125 -94
-184 20 -39 68 -63 109 -56 47 9 167 69 265 133 301 195 457 415 532 751 21
92 23 126 26 636 5 585 4 593 -50 644 -52 49 -203 68 -292 37z"/>
<path d="M8405 8161 c-56 -25 -91 -71 -105 -134 -7 -37 -10 -326 -8 -947 l3
-895 22 -42 c45 -83 130 -115 233 -89 182 47 459 251 633 466 151 187 337 534
337 628 0 38 -24 68 -64 82 -55 18 -77 1 -157 -117 -135 -199 -396 -433 -483
-433 -18 0 -37 5 -44 12 -9 9 -12 173 -12 678 0 624 -2 667 -19 705 -23 50
-45 70 -100 90 -61 21 -185 19 -236 -4z"/>
<path d="M937 8054 c-54 -29 -63 -106 -18 -156 l29 -33 583 -3 c655 -3 619 1
619 -76 0 -53 -39 -214 -85 -346 -49 -144 -172 -387 -250 -495 -221 -308 -520
-539 -877 -681 -141 -56 -178 -84 -178 -139 0 -49 23 -90 60 -105 25 -11 42
-11 88 0 162 36 498 172 687 277 199 112 329 207 471 345 l100 98 110 -112
c120 -124 190 -208 306 -369 97 -133 142 -175 200 -184 47 -7 123 7 170 31 48
25 110 86 129 129 22 48 24 126 5 163 -43 81 -301 271 -614 452 -97 56 -141
87 -138 96 3 8 28 47 55 88 119 176 244 425 308 611 62 184 56 274 -26 355
-28 27 -63 50 -87 58 -31 9 -237 12 -830 12 -686 -1 -793 -3 -817 -16z"/>
<path d="M5641 7224 c-50 -63 -47 -219 5 -270 l23 -24 754 0 c730 0 755 1 779
19 61 49 64 213 5 279 l-20 22 -763 0 -763 0 -20 -26z"/>
<path d="M585 5791 c-50 -22 -91 -69 -105 -119 -14 -52 -14 -2433 1 -2485 13
-47 63 -106 106 -123 27 -12 776 -14 4535 -14 4347 0 4504 1 4543 19 50 22 92
71 100 114 3 18 4 590 3 1273 l-3 1241 -29 37 c-16 21 -47 47 -70 57 -40 18
-167 19 -4541 19 -4344 0 -4501 -1 -4540 -19z m290 -162 c6 -6 -28 -47 -98
-117 -119 -118 -127 -120 -127 -26 0 65 29 111 90 142 34 18 54 22 85 17 22
-3 44 -10 50 -16z m8650 0 c10 -10 -193 -221 -206 -213 -4 2 -11 24 -14 47
-12 79 36 154 113 177 30 9 92 3 107 -11z m-8558 -127 c7 -53 -26 -124 -71
-152 -37 -22 -140 -28 -152 -9 -9 14 197 222 209 210 5 -5 11 -27 14 -49z
m8653 -16 c0 -91 -65 -156 -154 -156 -94 0 -92 8 24 125 94 94 106 104 118 88
6 -9 12 -35 12 -57z m-4710 -391 l0 -225 -285 0 -285 0 0 -680 0 -680 -280 0
-280 0 0 680 0 680 -285 0 -285 0 0 225 0 225 850 0 850 0 0 -225z m841 123
c57 -185 205 -658 284 -913 42 -137 80 -255 84 -262 3 -6 30 68 59 165 29 97
103 337 163 532 61 195 126 406 145 468 l35 112 285 0 c156 0 284 -3 284 -6 0
-4 -81 -223 -179 -488 -99 -264 -243 -653 -321 -864 -77 -210 -148 -398 -156
-417 l-14 -35 -304 0 -304 0 -25 68 c-14 37 -101 265 -192 507 -92 242 -218
575 -280 740 -62 165 -129 342 -149 393 -20 52 -36 96 -36 98 0 2 132 4 294 4
l294 0 33 -102z m2319 -483 c41 -21 62 -53 49 -77 -5 -10 -15 -18 -22 -18 -22
0 -90 77 -84 94 8 20 20 20 57 1z m-436 -47 c12 -17 16 -48 16 -120 0 -77 3
-98 14 -98 29 0 153 43 218 76 78 40 91 41 118 14 28 -28 26 -76 -2 -91 -36
-19 -154 -47 -255 -60 l-93 -12 0 -118 c0 -96 3 -119 17 -130 15 -13 173 -16
332 -6 43 3 64 -24 38 -50 -15 -15 -41 -17 -224 -17 -240 0 -273 8 -298 68
-23 54 -22 528 1 550 25 25 99 21 118 -6z m389 -13 c39 -38 44 -54 25 -73 -20
-20 -34 -14 -73 33 -60 74 -21 107 48 40z m-6339 -1 c15 -40 -7 -44 -224 -44
-115 0 -215 3 -224 6 -16 6 -22 35 -9 47 3 4 106 7 229 7 196 0 223 -2 228
-16z m589 -112 c31 -28 21 -57 -43 -115 l-60 -54 0 -169 c0 -186 -2 -194 -56
-194 -58 0 -64 16 -64 166 l0 134 -37 -15 c-61 -23 -185 -55 -194 -49 -25 15
1 37 98 84 95 47 117 63 200 147 99 99 111 104 156 65z m6310 0 c31 -28 21
-57 -43 -115 l-60 -54 0 -169 c0 -183 -3 -194 -51 -194 -59 0 -59 0 -59 157 0
134 -1 145 -17 138 -52 -20 -163 -53 -184 -55 -72 -6 -64 24 16 57 85 36 189
105 238 160 94 103 96 105 119 98 13 -4 31 -14 41 -23z m-6796 -78 c12 -33
-24 -44 -143 -44 l-111 0 -5 -82 c-5 -97 -27 -148 -84 -198 -62 -54 -209 -112
-247 -97 -10 4 -17 15 -17 26 0 15 17 28 65 51 37 17 73 43 86 61 30 43 49
112 49 181 l0 58 -114 0 c-63 0 -121 3 -130 6 -16 6 -22 35 -9 47 3 4 152 7
330 7 291 0 324 -2 330 -16z m1058 -94 l0 -35 -235 0 -235 0 -3 23 c-8 53 -11
53 240 50 l233 -3 0 -35z m6310 0 l0 -35 -233 -3 c-253 -3 -252 -3 -238 53 l6
25 233 -2 232 -3 0 -35z m-8299 -850 l28 -11 -104 -104 c-58 -58 -108 -105
-112 -105 -4 0 -10 16 -14 35 -23 122 91 227 202 185z m8657 -3 l28 -12 -110
-109 -109 -108 -12 37 c-23 70 12 149 83 184 47 24 79 26 120 8z m-8549 -152
c0 -89 -66 -155 -153 -155 -88 0 -86 9 29 125 72 72 108 101 115 94 5 -5 10
-35 9 -64z m8652 49 c10 -41 -2 -110 -24 -142 -31 -43 -84 -65 -144 -60 -26 3
-51 8 -55 12 -7 7 196 216 209 216 4 0 11 -12 14 -26z"/>
<path d="M7015 2808 c-10 -24 8 -72 28 -76 24 -5 22 39 -2 69 -17 21 -20 22
-26 7z"/>
<path d="M810 2759 c-30 -28 -75 -62 -100 -76 -59 -34 -72 -51 -59 -74 11 -21
49 -25 66 -8 9 9 16 8 28 -5 11 -10 33 -16 66 -16 45 0 49 -2 49 -25 0 -23 -3
-24 -77 -27 -74 -3 -78 -4 -81 -27 -5 -33 12 -41 91 -41 l67 0 0 -30 0 -30
-92 0 c-104 0 -121 -7 -116 -41 l3 -24 229 -3 c221 -2 256 2 256 29 0 4 -7 15
-16 23 -12 12 -37 16 -105 16 l-89 0 0 30 0 30 63 0 c74 0 109 18 91 47 -9 14
-26 19 -83 21 -68 3 -71 4 -71 27 0 23 4 25 44 25 26 0 51 6 59 15 12 11 20
12 46 2 26 -10 34 -9 48 6 24 23 10 44 -53 80 -27 16 -75 51 -106 78 -34 29
-66 49 -80 49 -13 -1 -46 -22 -78 -51z m132 -69 l43 -40 -95 0 -95 0 45 40
c25 21 48 39 52 40 4 0 26 -18 50 -40z"/>
<path d="M1772 2798 c-6 -6 -12 -18 -12 -25 0 -8 -13 -13 -34 -13 -22 0 -36
-6 -40 -16 -9 -24 12 -44 45 -44 19 0 29 -5 29 -15 0 -10 -11 -15 -35 -15 -23
0 -37 -6 -43 -17 -16 -31 -3 -43 46 -43 l47 0 -47 -30 c-71 -45 -61 -103 11
-66 16 9 44 16 62 16 l32 0 -29 -30 c-24 -24 -37 -29 -75 -30 -48 0 -64 -14
-53 -45 5 -11 21 -15 60 -15 41 0 54 -4 54 -15 0 -9 -9 -15 -24 -15 -29 0 -49
-22 -40 -44 4 -12 19 -16 53 -16 57 0 71 12 71 61 0 36 1 37 47 45 35 7 49 14
51 28 5 25 -14 35 -57 29 l-36 -6 28 26 c15 14 27 30 27 34 0 5 12 9 28 8 23
0 30 -7 44 -45 10 -25 18 -48 18 -52 0 -3 -23 -22 -51 -43 -38 -27 -50 -41
-47 -58 5 -37 47 -33 96 8 l42 36 36 -35 c42 -41 68 -45 85 -15 10 19 5 27
-33 68 l-45 46 23 60 c13 33 23 74 23 92 1 19 9 40 22 52 12 11 19 28 17 43
-3 21 -9 23 -64 26 l-62 3 2 32 c1 28 -3 32 -26 35 -24 3 -28 -1 -38 -40 -19
-74 -32 -99 -47 -94 -8 4 -17 6 -19 6 -2 0 7 18 22 39 29 45 29 75 -3 79 -15
2 -23 -4 -28 -18 -4 -14 -12 -19 -22 -16 -8 3 -22 6 -31 6 -10 0 -22 10 -27
22 -12 27 -35 34 -53 16z m88 -102 c0 -2 -7 -9 -15 -16 -12 -10 -15 -10 -15 4
0 9 7 16 15 16 8 0 15 -2 15 -4z m210 -56 c0 -10 -5 -43 -11 -71 -11 -51 -12
-52 -24 -28 -16 31 -28 96 -20 109 3 6 17 10 31 10 17 0 24 -5 24 -20z m-156
-45 c-6 -16 -74 -22 -74 -7 0 16 13 22 46 22 26 0 32 -4 28 -15z"/>
<path d="M2570 2791 c-5 -11 -10 -76 -10 -145 0 -122 -1 -126 -22 -131 -13 -3
-50 -11 -83 -18 -48 -10 -61 -17 -63 -33 -5 -37 17 -44 88 -29 36 8 68 14 73
15 4 0 7 -24 7 -54 0 -58 20 -92 47 -82 8 3 17 6 19 6 2 0 4 32 4 70 0 66 2
71 25 80 26 10 33 38 14 57 -6 6 -18 9 -25 6 -12 -4 -14 19 -14 130 0 114 -2
136 -16 141 -25 10 -33 7 -44 -13z"/>
<path d="M2917 2795 c-10 -9 -41 -15 -88 -17 -66 -3 -74 -5 -74 -23 0 -18 9
-21 80 -26 l80 -5 -102 -2 c-71 -1 -103 -6 -106 -14 -11 -32 5 -38 107 -40
l101 -2 -82 -3 c-75 -3 -83 -6 -83 -23 0 -18 8 -20 83 -22 l82 -2 -85 -5 c-70
-5 -85 -9 -88 -23 -3 -16 6 -18 82 -18 51 0 86 -4 86 -10 0 -6 -40 -10 -100
-10 -93 0 -100 -1 -100 -20 0 -19 7 -20 240 -20 233 0 240 1 240 20 0 19 -7
20 -105 20 -63 0 -105 4 -105 10 0 6 36 10 88 10 93 0 109 5 91 27 -8 9 -40
14 -98 15 l-86 2 78 3 c71 4 79 6 89 28 6 14 16 25 23 25 17 0 34 21 28 36 -3
8 -14 14 -24 14 -10 0 -19 5 -19 10 0 6 -9 19 -20 30 -16 16 -33 20 -81 20
-40 0 -65 5 -75 15 -19 19 -38 19 -57 0z m136 -72 c-13 -2 -35 -2 -50 0 -16 2
-5 4 22 4 28 0 40 -2 28 -4z m0 -60 c-13 -2 -35 -2 -50 0 -16 2 -5 4 22 4 28
0 40 -2 28 -4z"/>
<path d="M3326 2794 c-9 -8 -16 -26 -16 -39 0 -21 -5 -24 -42 -27 -32 -2 -44
-8 -46 -21 -7 -34 17 -47 84 -47 l64 0 0 -32 c0 -18 -5 -40 -10 -48 -8 -12
-15 -9 -44 19 -36 35 -61 37 -73 5 -4 -10 10 -31 41 -63 l46 -47 -24 -34 c-13
-19 -38 -45 -55 -58 -17 -12 -31 -29 -31 -37 0 -16 27 -45 42 -45 12 0 77 65
99 99 l16 25 19 -33 c14 -24 25 -31 44 -29 37 4 38 40 1 87 l-31 39 15 58 c8
32 15 66 15 75 0 22 27 32 34 13 4 -10 22 -14 61 -14 l55 0 0 -124 0 -125 -36
-3 c-44 -4 -65 -28 -45 -52 16 -19 101 -22 132 -6 17 10 19 23 19 160 0 147 0
149 23 152 17 2 22 10 22 33 0 23 -5 31 -22 33 -20 3 -23 9 -23 47 0 38 -11
55 -35 55 -15 0 -35 -37 -35 -65 l0 -33 -56 -4 c-39 -2 -58 1 -61 10 -3 7 -23
12 -49 12 -43 0 -44 1 -44 34 0 22 -6 36 -16 40 -21 8 -20 8 -38 -10z"/>
<path d="M3963 2803 c-7 -2 -13 -13 -13 -24 0 -17 -8 -19 -74 -19 -51 0 -79
-4 -89 -14 -10 -11 -16 -53 -20 -158 -3 -97 -11 -158 -22 -191 -19 -52 -10
-77 26 -77 35 0 57 81 67 255 l7 120 185 5 185 5 0 25 c0 25 -1 25 -97 28 -88
2 -98 5 -98 21 0 25 -28 36 -57 24z"/>
<path d="M6946 2802 c-2 -4 -1 -14 5 -22 23 -37 13 -39 -168 -42 l-178 -3 0
-30 0 -30 163 -3 c186 -3 183 -1 138 -97 -32 -69 -102 -129 -182 -155 -36 -12
-68 -28 -71 -36 -8 -21 16 -44 46 -44 38 1 133 42 179 79 74 58 141 197 128
264 -4 18 -7 42 -6 54 0 51 -36 94 -54 65z"/>
<path d="M9550 2791 c0 -11 4 -31 10 -45 l10 -26 -78 0 -77 0 0 33 c0 27 -4
32 -25 35 -21 2 -30 -6 -57 -51 -18 -29 -52 -72 -76 -95 -57 -51 -61 -60 -47
-77 22 -26 50 -16 104 35 l53 50 81 0 c95 0 96 -2 57 -79 -44 -88 -110 -136
-225 -166 -49 -12 -64 -41 -35 -65 13 -11 27 -10 81 5 124 34 228 128 269 244
20 57 20 110 0 117 -12 5 -13 10 -4 20 8 10 8 23 -1 49 -12 37 -40 48 -40 16z"/>
<path d="M9610 2796 c0 -29 20 -66 35 -66 17 0 19 18 5 54 -10 28 -40 36 -40
12z"/>
<path d="M2275 2786 c-65 -10 -70 -13 -70 -36 0 -22 5 -25 38 -28 32 -3 37 -7
37 -28 0 -21 -4 -24 -39 -24 -25 0 -41 -5 -45 -15 -10 -28 5 -45 40 -45 19 0
34 -2 34 -5 0 -16 -34 -83 -56 -112 -30 -39 -29 -77 2 -81 15 -2 28 7 43 30
l21 33 0 -76 c0 -62 3 -78 16 -83 34 -13 44 12 44 108 1 67 3 86 11 74 12 -22
32 -23 49 -3 10 13 6 23 -24 63 l-37 47 28 5 c22 4 28 11 28 30 0 20 -6 26
-27 28 -23 3 -28 8 -28 32 0 22 6 30 31 39 24 8 30 15 27 33 -4 28 -25 30
-123 14z"/>
<path d="M1220 2783 c-36 -13 -40 -33 -40 -228 0 -173 2 -194 18 -208 27 -25
392 -25 416 -1 14 13 16 47 16 214 0 194 -1 199 -22 214 -18 13 -54 16 -198
15 -96 0 -182 -3 -190 -6z m345 -228 l0 -160 -155 0 -155 0 -2 25 c-1 14 0 19
3 13 4 -10 44 -13 150 -13 124 0 146 2 151 16 4 10 -2 23 -14 33 -10 9 -24 28
-31 43 -10 24 -9 27 11 30 14 2 22 10 22 23 0 17 -8 20 -57 23 -54 3 -58 5
-58 27 0 24 3 25 59 25 63 0 80 13 58 44 -10 14 -32 16 -147 14 l-135 -3 0
-25 c0 -23 4 -25 53 -28 48 -3 52 -5 52 -28 0 -22 -4 -24 -50 -24 -47 0 -50
-2 -50 -25 0 -23 3 -25 50 -25 49 0 50 -1 50 -30 0 -28 -2 -30 -41 -30 -22 0
-49 -5 -60 -10 -18 -10 -19 -6 -19 120 l0 131 158 -3 157 -3 0 -160z m-105
-29 c0 -8 3 -21 6 -30 4 -12 0 -16 -15 -16 -17 0 -21 6 -21 30 0 20 5 30 15
30 8 0 15 -6 15 -14z"/>
<path d="M5236 2736 c-19 -29 -55 -74 -81 -99 -53 -50 -57 -80 -13 -85 20 -2
37 8 76 47 l51 51 84 0 84 0 -5 -25 c-2 -14 -18 -48 -36 -77 -37 -63 -104
-111 -185 -134 -72 -21 -87 -34 -71 -64 10 -19 17 -21 48 -15 155 29 265 122
311 263 25 75 26 86 5 106 -12 12 -37 16 -105 16 -88 0 -89 1 -79 21 9 15 8
24 -1 35 -22 27 -48 15 -83 -40z"/>
<path d="M2442 2768 c-20 -20 -14 -33 29 -67 41 -33 64 -35 76 -5 4 12 -5 28
-30 51 -39 35 -56 40 -75 21z"/>
<path d="M4592 2761 c-8 -4 -12 -19 -10 -32 l3 -24 178 -3 c97 -1 177 -7 177
-11 0 -16 -50 -70 -81 -88 -32 -19 -37 -44 -14 -63 20 -16 50 -5 98 39 68 61
99 159 58 181 -24 12 -390 14 -409 1z"/>
<path d="M5656 2754 c-12 -12 -13 -20 -6 -35 10 -18 21 -19 188 -17 l177 3 3
24 c2 13 -2 28 -10 32 -7 5 -86 9 -175 9 -134 0 -164 -3 -177 -16z"/>
<path d="M7179 2754 c-9 -11 -10 -20 -2 -32 9 -15 34 -17 181 -20 165 -2 171
-2 177 18 14 44 -6 50 -180 50 -136 0 -165 -3 -176 -16z"/>
<path d="M8694 2745 c-10 -26 2 -39 81 -88 82 -50 94 -54 113 -35 30 30 1 62
-105 117 -49 25 -81 27 -89 6z"/>
<path d="M8220 2743 c-31 -12 -37 -35 -14 -57 13 -13 44 -16 179 -16 135 0
166 3 179 16 9 8 16 19 16 24 0 5 -7 16 -16 24 -13 13 -42 16 -172 15 -86 0
-164 -3 -172 -6z"/>
<path d="M9074 2712 c-6 -4 -23 -34 -38 -67 -60 -132 -121 -185 -247 -211 -41
-8 -78 -19 -83 -24 -5 -5 -6 -20 -2 -34 5 -22 12 -26 40 -26 46 0 145 32 200
64 57 33 110 95 146 171 40 84 43 100 25 119 -18 18 -25 19 -41 8z"/>
<path d="M6404 2677 c-57 -48 -106 -76 -197 -111 -44 -18 -82 -36 -84 -42 -2
-5 3 -19 11 -29 14 -20 16 -20 90 6 l75 25 3 -95 3 -96 30 0 30 0 5 117 5 116
58 43 c57 42 68 64 45 87 -18 18 -31 15 -74 -21z"/>
<path d="M3940 2676 c-19 -24 -9 -36 68 -71 64 -30 74 -32 87 -19 22 23 4 48
-52 71 -76 33 -89 35 -103 19z"/>
<path d="M4767 2659 c-13 -8 -17 -23 -17 -62 0 -74 -32 -134 -92 -172 -57 -36
-65 -53 -39 -78 19 -20 20 -20 65 7 79 46 127 127 134 227 4 58 2 68 -14 77
-13 7 -26 7 -37 1z"/>
<path d="M2422 2638 c-20 -20 -14 -35 27 -67 40 -32 64 -33 76 -3 4 12 -5 27
-29 49 -38 35 -55 40 -74 21z"/>
<path d="M7140 2621 c-7 -15 -6 -23 6 -35 13 -13 43 -16 175 -16 165 0 169 -1
148 -43 -35 -67 -86 -99 -199 -122 -58 -11 -74 -31 -49 -61 27 -33 185 14 252
75 66 60 108 176 75 209 -9 9 -68 12 -205 12 -180 0 -193 -1 -203 -19z"/>
<path d="M5611 2612 c-6 -11 -6 -24 0 -35 8 -14 25 -17 106 -17 l95 0 -7 -37
c-10 -55 -39 -89 -93 -109 -64 -24 -77 -36 -63 -63 14 -26 26 -26 95 -1 83 31
136 104 136 188 0 21 4 22 78 22 88 0 105 7 100 41 l-3 24 -217 3 c-200 2
-218 1 -227 -16z"/>
<path d="M4367 2602 c-37 -40 -9 -102 46 -102 34 0 57 24 57 60 0 16 -7 36
-16 44 -21 22 -67 20 -87 -2z"/>
<path d="M3474 2596 c-16 -12 -16 -17 11 -79 30 -67 43 -81 70 -71 22 9 18 48
-10 103 -27 54 -45 66 -71 47z"/>
<path d="M3949 2579 c-17 -33 -8 -237 11 -249 8 -5 43 -10 76 -10 76 0 89 12
89 89 0 47 -3 56 -19 59 -25 5 -46 -23 -46 -61 0 -24 -4 -28 -22 -25 -22 3
-23 8 -26 103 -3 97 -9 114 -39 115 -7 0 -17 -10 -24 -21z"/>
<path d="M7652 2588 c-7 -7 -12 -19 -12 -28 0 -37 19 -40 226 -40 111 0 209 3
218 6 9 4 16 18 16 34 0 16 -7 30 -16 34 -31 12 -419 7 -432 -6z"/>
<path d="M4126 2577 c-16 -11 -15 -17 3 -77 10 -36 22 -81 26 -100 9 -42 22
-52 48 -38 16 8 18 17 13 56 -9 70 -38 153 -57 162 -10 6 -22 5 -33 -3z"/>
<path d="M3866 2548 c-3 -13 -10 -48 -16 -78 -6 -30 -13 -64 -16 -77 -4 -15 0
-25 16 -33 38 -21 48 -3 70 128 11 64 5 82 -26 82 -16 0 -25 -7 -28 -22z"/>
<path d="M2767 2483 c-4 -3 -7 -37 -7 -75 0 -64 2 -69 26 -78 14 -6 88 -10
164 -10 76 0 150 4 164 10 24 9 26 14 26 73 0 36 -5 68 -12 75 -13 13 -349 18
-361 5z m303 -43 c0 -6 -47 -10 -120 -10 -73 0 -120 4 -120 10 0 6 47 10 120
10 73 0 120 -4 120 -10z m0 -60 c0 -6 -47 -10 -120 -10 -73 0 -120 4 -120 10
0 6 47 10 120 10 73 0 120 -4 120 -10z"/>
<path d="M8173 2443 c-21 -8 -15 -51 7 -63 14 -7 90 -10 221 -8 164 2 201 6
209 18 13 21 12 26 -6 44 -13 14 -46 16 -217 15 -111 0 -208 -3 -214 -6z"/>
</g>
</svg>
